<?xml version="1.0" encoding="UTF-8" standalone="no"?>
<!DOCTYPE svg PUBLIC "-//W3C//DTD SVG 1.1//EN" "http://www.w3.org/Graphics/SVG/1.1/DTD/svg11.dtd">
<svg width="100%" height="100%" viewBox="0 0 24 24" version="1.1" xmlns="http://www.w3.org/2000/svg" xmlns:xlink="http://www.w3.org/1999/xlink" xml:space="preserve" xmlns:serif="http://www.serif.com/" style="fill-rule:evenodd;clip-rule:evenodd;stroke-linejoin:round;stroke-miterlimit:2;">
    <g transform="matrix(1.03226,0,0,1.03226,-0.387097,-0.387097)">
        <path d="M22.5,5.99L16.905,0.375L4.485,0.375C3.693,0.375 2.934,0.691 2.374,1.253C1.814,1.815 1.5,2.577 1.5,3.372L1.5,20.448C1.5,22.203 2.917,23.625 4.665,23.625L19.297,23.625C21.066,23.625 22.5,22.185 22.5,20.409L22.5,5.99Z" style="fill:rgb(55,137,95);"/>
    </g>
    <g transform="matrix(1.03226,0,0,1.03226,-0.387097,-0.387097)">
        <path d="M21.009,6.38L16.502,1.89C16.502,1.89 7.822,1.878 4.345,1.874C3.986,1.874 3.642,2.017 3.387,2.271C3.133,2.526 2.991,2.872 2.991,3.232L2.991,20.724C2.991,21.499 3.616,22.127 4.388,22.127L19.614,22.127C20.385,22.127 21.009,21.5 21.009,20.727L21.009,6.38Z" style="fill:white;"/>
    </g>
    <g transform="matrix(0.0967742,0,0,0.0967742,-0.387097,-0.387097)">
        <path d="M48.585,45.294C47.826,46.071 47.825,47.311 48.584,48.089C52.056,51.649 61.126,60.95 63.522,63.407C63.898,63.793 64.414,64.01 64.952,64.011C67.794,64.014 77.18,64.024 83.054,64.03C83.868,64.031 84.601,63.539 84.908,62.785C85.215,62.032 85.035,61.167 84.453,60.599C80.575,56.816 74.53,50.919 71.789,48.245C71.409,47.874 71.192,47.367 71.186,46.835C71.18,46.303 71.387,45.791 71.759,45.412C74.532,42.59 80.77,36.243 84.655,32.29C85.219,31.715 85.384,30.858 85.074,30.116C84.763,29.373 84.037,28.889 83.231,28.888C77.503,28.88 68.304,28.867 65.493,28.863C64.953,28.862 64.437,29.079 64.06,29.465C61.603,31.977 52.145,41.653 48.585,45.294Z" style="fill:rgb(55,137,95);"/>
    </g>
    <g transform="matrix(-0.0967742,-1.18514e-17,1.18514e-17,-0.0967742,24.1891,24.0849)">
        <path d="M48.585,45.294C47.826,46.071 47.825,47.311 48.584,48.089C52.056,51.649 61.126,60.95 63.522,63.407C63.898,63.793 64.414,64.01 64.952,64.011C67.794,64.014 77.18,64.024 83.054,64.03C83.868,64.031 84.601,63.539 84.908,62.785C85.215,62.032 85.035,61.167 84.453,60.599C80.575,56.816 74.53,50.919 71.789,48.245C71.409,47.874 71.192,47.367 71.186,46.835C71.18,46.303 71.387,45.791 71.759,45.412C74.532,42.59 80.77,36.243 84.655,32.29C85.219,31.715 85.384,30.858 85.074,30.116C84.763,29.373 84.037,28.889 83.231,28.888C77.503,28.88 68.304,28.867 65.493,28.863C64.953,28.862 64.437,29.079 64.06,29.465C61.603,31.977 52.145,41.653 48.585,45.294Z" style="fill:rgb(55,137,95);"/>
    </g>
    <g transform="matrix(0.0967742,0,0,0.0967742,3.75207,-0.387097)">
        <path d="M48.585,45.294C47.826,46.071 47.825,47.311 48.584,48.089C52.056,51.649 61.126,60.95 63.522,63.407C63.898,63.793 64.414,64.01 64.952,64.011C67.794,64.014 77.18,64.024 83.054,64.03C83.868,64.031 84.601,63.539 84.908,62.785C85.215,62.032 85.035,61.167 84.453,60.599C80.575,56.816 74.53,50.919 71.789,48.245C71.409,47.874 71.192,47.367 71.186,46.835C71.18,46.303 71.387,45.791 71.759,45.412C74.532,42.59 80.77,36.243 84.655,32.29C85.219,31.715 85.384,30.858 85.074,30.116C84.763,29.373 84.037,28.889 83.231,28.888C77.503,28.88 68.304,28.867 65.493,28.863C64.953,28.862 64.437,29.079 64.06,29.465C61.603,31.977 52.145,41.653 48.585,45.294Z" style="fill:rgb(55,137,95);"/>
    </g>
    <g transform="matrix(-0.0967742,-1.18514e-17,1.18514e-17,-0.0967742,20.0499,24.0849)">
        <path d="M48.585,45.294C47.826,46.071 47.825,47.311 48.584,48.089C52.056,51.649 61.126,60.95 63.522,63.407C63.898,63.793 64.414,64.01 64.952,64.011C67.794,64.014 77.18,64.024 83.054,64.03C83.868,64.031 84.601,63.539 84.908,62.785C85.215,62.032 85.035,61.167 84.453,60.599C80.575,56.816 74.53,50.919 71.789,48.245C71.409,47.874 71.192,47.367 71.186,46.835C71.18,46.303 71.387,45.791 71.759,45.412C74.532,42.59 80.77,36.243 84.655,32.29C85.219,31.715 85.384,30.858 85.074,30.116C84.763,29.373 84.037,28.889 83.231,28.888C77.503,28.88 68.304,28.867 65.493,28.863C64.953,28.862 64.437,29.079 64.06,29.465C61.603,31.977 52.145,41.653 48.585,45.294Z" style="fill:rgb(55,137,95);"/>
    </g>
    <g transform="matrix(0.10472,0,0,0.120981,-0.915183,-3.93117)">
        <path d="M123.33,149.042C123.33,139.462 114.345,131.684 103.277,131.684L72.593,131.684C61.525,131.684 52.539,139.462 52.539,149.042C52.539,157.796 58.984,166.075 68.819,166.075C68.87,166.075 69.311,166.051 69.311,166.051C69.311,166.051 69.327,174.767 69.337,180.353C69.339,181.122 69.874,181.815 70.695,182.11C71.516,182.405 72.461,182.243 73.092,181.701C79.257,176.394 90.869,166.4 90.869,166.4L103.277,166.4C114.345,166.4 123.33,158.622 123.33,149.042Z" style="fill:rgb(55,137,95);"/>
    </g>
    <g transform="matrix(-0.10472,0,0,0.120981,24.7172,-8.99014)">
        <path d="M123.33,149.042C123.33,139.462 114.345,131.684 103.277,131.684L72.593,131.684C61.525,131.684 52.539,139.462 52.539,149.042C52.539,157.796 58.984,166.075 68.819,166.075C68.87,166.075 69.311,166.051 69.311,166.051C69.311,166.051 69.327,174.767 69.337,180.353C69.339,181.122 69.874,181.815 70.695,182.11C71.516,182.405 72.461,182.243 73.092,181.701C79.257,176.394 90.869,166.4 90.869,166.4L103.277,166.4C114.345,166.4 123.33,158.622 123.33,149.042Z" style="fill:rgb(55,137,95);"/>
    </g>
</svg>
