<?xml version="1.0" encoding="UTF-8" standalone="no"?>
<!DOCTYPE svg PUBLIC "-//W3C//DTD SVG 1.1//EN" "http://www.w3.org/Graphics/SVG/1.1/DTD/svg11.dtd">
<svg width="100%" height="100%" viewBox="0 0 24 24" version="1.1" xmlns="http://www.w3.org/2000/svg" xmlns:xlink="http://www.w3.org/1999/xlink" xml:space="preserve" xmlns:serif="http://www.serif.com/" style="fill-rule:evenodd;clip-rule:evenodd;stroke-linejoin:round;stroke-miterlimit:2;">
    <path d="M24,5.615L18.405,0L2.985,0C2.193,0 1.434,0.316 0.874,0.878C0.314,1.44 -0,2.202 0,2.997L0,20.823C0,22.578 1.417,24 3.165,24L20.797,24C22.566,24 24,22.56 24,20.784L24,5.615Z" style="fill:rgb(55,137,95);"/>
    <path d="M22.441,6.749L17.309,1.547C17.309,1.547 6.456,1.535 2.979,1.531C2.62,1.531 2.276,1.674 2.021,1.928C1.767,2.183 1.625,2.529 1.625,2.889L1.625,21.079C1.625,21.854 2.25,22.482 3.022,22.482L21.046,22.482C21.817,22.482 22.441,21.855 22.441,21.082L22.441,6.749Z" style="fill:white;"/>
    <path d="M8.76,8.052C8.623,8.133 8.46,8.153 8.308,8.107C7.951,8.001 7.275,7.799 6.877,7.68C6.672,7.618 6.45,7.677 6.301,7.831C5.841,8.319 5.496,8.946 5.249,9.596C5.14,9.884 5.216,10.209 5.44,10.419C5.737,10.697 6.15,11.083 6.393,11.31C6.523,11.431 6.597,11.6 6.599,11.778C6.603,12.122 6.609,12.705 6.612,13.062C6.615,13.258 6.532,13.444 6.385,13.573C6.14,13.789 5.748,14.134 5.461,14.388C5.222,14.598 5.129,14.93 5.223,15.234C5.46,15.992 5.873,16.66 6.346,17.084C6.519,17.235 6.761,17.281 6.978,17.204C7.276,17.102 7.719,16.944 8.043,16.828C8.309,16.734 8.601,16.758 8.848,16.895C9.107,17.039 9.447,17.229 9.706,17.372C9.948,17.507 10.122,17.739 10.185,18.01C10.262,18.347 10.371,18.819 10.452,19.17C10.525,19.487 10.778,19.731 11.096,19.792C11.72,19.911 12.39,19.906 13.045,19.776C13.3,19.725 13.499,19.527 13.554,19.273C13.632,18.913 13.745,18.387 13.823,18.024C13.879,17.761 14.042,17.534 14.274,17.398C14.524,17.25 14.858,17.053 15.113,16.903C15.356,16.76 15.647,16.725 15.917,16.808C16.292,16.923 16.83,17.089 17.161,17.19C17.359,17.251 17.574,17.202 17.726,17.061C18.202,16.61 18.572,15.97 18.815,15.267C18.91,14.991 18.834,14.684 18.621,14.484C18.351,14.231 17.973,13.877 17.71,13.632C17.514,13.449 17.405,13.192 17.409,12.923C17.415,12.588 17.423,12.127 17.428,11.821C17.431,11.616 17.517,11.421 17.665,11.28C17.939,11.02 18.393,10.587 18.682,10.312C18.851,10.152 18.908,9.906 18.827,9.688C18.569,9.02 18.2,8.388 17.729,7.842C17.607,7.704 17.415,7.649 17.239,7.703C16.823,7.829 16.063,8.062 15.725,8.165C15.616,8.199 15.498,8.186 15.399,8.13C15.117,7.97 14.522,7.634 14.199,7.451C14.059,7.372 13.956,7.239 13.915,7.083C13.82,6.72 13.638,6.032 13.519,5.58C13.448,5.312 13.217,5.117 12.941,5.094C12.314,5.046 11.677,5.051 11.05,5.126C10.785,5.16 10.568,5.352 10.5,5.611C10.379,6.072 10.192,6.79 10.108,7.114C10.079,7.223 10.009,7.316 9.913,7.373C9.642,7.532 9.071,7.869 8.76,8.052Z" style="fill:rgb(161,188,149);"/>
    <ellipse cx="12.012" cy="12.421" rx="2.755" ry="2.766" style="fill:white;"/>
</svg>
